<svg id="Capa_1" enable-background="new 0 0 511.153 511.153" height="512" viewBox="0 0 511.153 511.153" width="512" xmlns="http://www.w3.org/2000/svg"><g><g><path d="m187.116 51.84-89.318 67.39-3.899 51.982v32.488l-25.991 43.535 4.548 13.645 14.945 8.447-3.249 72.713 14.945 46.846 28.59 12.995v5.414c.006.006.01.01.016.016h42.392c1.634 0 2.959 1.325 2.959 2.959v89.79c0 1.983 1.608 3.591 3.591 3.591h154.608c1.983 0 3.591-1.608 3.591-3.591v-95.47-352.75z" fill="#fed2a4"/><g><path d="m106.992 358.71.11-82.42-23.48-12.43c-3.73-1.97-5.08-6.65-2.98-10.31l28.78-50.19c1.4-2.44 2.14-5.2 2.14-8.01v-56.23c0-16.01 6.5-31.32 18.02-42.44l7.83-7.56 52.03-37.28h-27.228l-52.03 37.28-7.83 7.56c-11.52 11.12-18.02 26.43-18.02 42.44v56.23c0 2.81-.74 5.57-2.14 8.01l-28.78 50.19c-2.1 3.66-.75 8.34 2.98 10.31l23.48 12.43-.11 82.42c-.03 26.83 21.71 48.6 48.54 48.6h27.228c-26.83 0-48.57-21.77-48.54-48.6z" fill="#ffbd86"/></g><g id="XMLID_196_"><path d="m440.188 233.455-105.344-10.482-16.34 25.248c.32 1.81.49 3.67.49 5.58v17.54c0 9.1-3.9 17.76-10.7 23.8l-27.31 24.26c-7.5 6.66-8.24 18.11-1.65 25.68l46.35 53.23c6.64 7.62 18.21 8.41 25.82 1.76l36.99-32.34c22.32-19.51 39.88-43.37 51.86-69.76 5.14-11.32 9.25-23.1 12.27-35.21z" fill="#baafb9"/></g><path d="m253.224 7.5h-165.46c-6.108 0-11.06 4.952-11.06 11.06v35.73c0 19.236 15.594 34.83 34.83 34.83h30.71c40.98 0 74.19 33.22 74.19 74.19v128.53c0 6.27 7.1 9.92 12.21 6.28l25.52-18.241c.728-.52 1.16-1.36 1.16-2.255v-13.684l-.325-.328-3.335-.078v-13.901l3.836-.372.191-.308.027-.154c1.07-6.788 4.281-12.865 8.926-17.509 5.76-5.76 13.72-9.32 22.51-9.32 15.67 0 28.71 11.33 31.35 26.25l134.12 14.54c4.02-16.12 6.11-32.82 6.11-49.75 0-113.5-92.01-205.51-205.51-205.51z" fill="#9b8e99"/><g><path d="m146.296 89.235c-17.98-1.372-32.145-16.613-32.145-34.944v-35.731c0-6.108 4.952-11.06 11.06-11.06h-37.447c-6.108 0-11.06 4.952-11.06 11.06v35.73c0 19.236 15.594 34.83 34.83 34.83h30.71c1.36 0 2.71.042 4.052.115z" fill="#8b8089"/></g><path d="m169.964 253.28c-1.14-3.2-3.84-5.61-7.14-6.4-28.383-6.866-57.122-7.426-86.18-2.166-2.278 7.203-4.682 14.915-4.682 14.915l20.256 15.554 6.873 78.542 3.709 17.575c18.363 2.99 38.56 1.123 60.265-4.74 3.17-.86 5.74-3.21 6.85-6.3 12.879-35.56 12.829-71.22.049-106.98z" fill="#00f2a6"/><path d="m108.863 372.106c-1.215-4.257-1.877-8.748-1.871-13.396l.096-71.804c.009-6.53-3.597-12.528-9.368-15.583l-14.098-7.463c-3.73-1.97-5.08-6.65-2.98-10.31l5.982-10.433c-8.701 1.175-17.432 2.877-26.19 5.103l-4.6 1.11-2.42 4.22c-2.1 3.66-.75 8.34 2.98 10.31l23.48 12.43-.11 82.42c0 2.23.15 4.42.44 6.57l1.01-.14c8.703 3.683 17.936 5.961 27.649 6.966z" fill="#05e39c"/></g><g><path d="m459.809 264.91c4.224-16.814 6.429-34.23 6.429-51.898 0-51.522-18.645-101.251-52.499-140.027-2.725-3.121-7.463-3.441-10.583-.717s-3.441 7.462-.717 10.582c31.468 36.042 48.799 82.268 48.799 130.162 0 14.098-1.508 28.025-4.418 41.573l-24.984-2.708c-4.116-.441-7.817 2.531-8.265 6.648-.446 4.118 2.53 7.818 6.648 8.265l22.849 2.477c-10.546 35.585-30.989 67.88-59.509 92.815l-36.988 32.339c-2.172 1.898-4.952 2.836-7.83 2.64s-5.506-1.502-7.4-3.677l-46.353-53.233c-3.867-4.44-3.431-11.234.972-15.144l13.897-12.342c.005-.004.01-.009.015-.013l13.402-11.903c8.398-7.458 13.214-18.177 13.214-29.409v-14.711l61.651 6.684c.275.03.548.044.818.044 3.779 0 7.03-2.849 7.447-6.692.446-4.118-2.53-7.818-6.648-8.265l-65.311-7.081c-5.232-15.585-19.965-26.849-37.29-26.849-19.948 0-36.463 14.93-38.987 34.201l-24.231-.898v-52.337c0-4.142-3.358-7.5-7.5-7.5s-7.5 3.358-7.5 7.5v51.781l-34.543-1.281c-2.411-3.128-5.842-5.391-9.81-6.349-30.333-7.33-61.8-7.788-93.707-1.414l17.824-31.077c2.048-3.571 3.13-7.634 3.13-11.749v-56.227c0-13.893 5.732-27.395 15.726-37.045l5.651-5.457h29.033c36.776 0 66.695 29.919 66.695 66.695v.159c0 4.142 3.358 7.5 7.5 7.5s7.5-3.358 7.5-7.5v-.159c0-45.047-36.648-81.695-81.695-81.695h-30.706c-15.071 0-27.333-12.262-27.333-27.333v-35.722c0-1.964 1.598-3.563 3.563-3.563h165.46c46.479 0 91.658 16.438 127.217 46.285 3.173 2.663 7.903 2.25 10.566-.923s2.25-7.903-.923-10.566c-38.255-32.111-86.859-49.796-136.859-49.796h-165.46c-10.235 0-18.563 8.327-18.563 18.563v35.723c0 17.533 10.715 32.609 25.939 39.028-11.664 12.288-18.311 28.818-18.311 45.807v56.227c0 1.501-.395 2.984-1.142 4.287l-28.782 50.183c-2.037 3.552-2.532 7.674-1.394 11.606 1.138 3.933 3.757 7.154 7.375 9.069l19.48 10.313-.103 77.899c-.02 14.982 5.8 29.071 16.387 39.671s24.668 16.439 39.65 16.439h37.252v88.838c0 4.142 3.358 7.5 7.5 7.5s7.5-3.358 7.5-7.5v-88.838h28.168c4.142 0 7.5-3.358 7.5-7.5s-3.358-7.5-7.5-7.5h-80.42c-10.972 0-21.284-4.275-29.037-12.039-3.339-3.343-6.026-7.162-8.007-11.301 9.232 2.456 19.09 3.689 29.546 3.689 13.74 0 28.505-2.121 44.21-6.365 4.347-1.175 8.029-3.963 10.357-7.711l92.838-39.571c-2.079 7.985-.324 16.837 5.464 23.484l46.353 53.233c2.099 2.41 4.578 4.367 7.315 5.827v94.592c0 4.142 3.358 7.5 7.5 7.5s7.5-3.358 7.5-7.5v-91.739c5.193-.571 10.084-2.69 14.101-6.201l36.988-32.339c32.954-28.812 55.887-66.758 66.363-108.414.008-.017.011-.034.016-.05zm-211.985-1.243v11.528l-23.542 16.818c-.064.045-.095.054-.095.054-.059.01-.21-.068-.239-.123 0 0-.011-.03-.011-.108v-29.055zm-30.632 41.701c5.091 2.621 11.15 2.18 15.809-1.149l26.682-19.062c1.971-1.408 3.14-3.681 3.14-6.103v-25.252c0-13.417 10.916-24.333 24.333-24.333 12 0 21.991 8.733 23.97 20.176.002.008.003.016.004.024.231 1.344.358 2.723.358 4.132v17.537c0 6.949-2.979 13.58-8.175 18.193l-12.379 10.994-109.079 46.493c7.341-28.439 6.86-57.212-1.46-85.852l28.541 1.058v29.611c.002 5.728 3.165 10.913 8.256 13.533zm-56.088 53.951c-29.063 7.853-53.251 7.899-73.82.153-.004-.25-.018-.498-.017-.748l.108-82.421c.004-2.782-1.532-5.336-3.991-6.638l-23.464-12.386.902-1.573c.482-.026.969-.097 1.454-.221 33.723-8.566 66.959-9.011 98.786-1.319.846.204 1.549.83 1.836 1.633 12.151 34.005 12.141 68.292-.033 101.908-.284.788-.943 1.391-1.761 1.612z"/></g></g></svg>