<svg height="512pt" viewBox="0 -85 512 512" width="512pt" xmlns="http://www.w3.org/2000/svg"><path d="m487.765625 310.484375h-463.53125c-9.242187 0-16.734375-7.492187-16.734375-16.734375v-269.515625c0-9.242187 7.492188-16.734375 16.734375-16.734375h463.53125c9.242187 0 16.734375 7.492188 16.734375 16.734375v269.515625c0 9.242188-7.492188 16.734375-16.734375 16.734375zm0 0" fill="#e6e6e6"/><path d="m487.765625 7.5h-17.515625v252c0 9.242188-7.492188 16.734375-16.734375 16.734375h-446.015625v17.515625c0 9.242188 7.492188 16.734375 16.734375 16.734375h463.53125c9.242187 0 16.734375-7.492187 16.734375-16.734375v-269.515625c0-9.242187-7.492188-16.734375-16.734375-16.734375zm0 0" fill="#ccc"/><path d="m63 310.484375h90v23.984375h-90zm0 0" fill="#e6e6e6"/><path d="m359 310.484375h90v23.984375h-90zm0 0" fill="#e6e6e6"/><path d="m42 46.492188h263v225h-263zm0 0" fill="#919191"/><path d="m278.628906 46.492188v155.488281c0 23.828125-19.316406 43.140625-43.140625 43.140625h-193.488281v26.371094h263v-225zm0 0" fill="#828282"/><path d="m455.25 238.054688c0 24.34375-19.738281 44.082031-44.082031 44.082031-24.347657 0-44.082031-19.738281-44.082031-44.082031 0-24.347657 19.734374-44.085938 44.082031-44.085938 24.34375 0 44.082031 19.738281 44.082031 44.085938zm0 0" fill="#5b9ed6"/><path d="m411.167969 193.96875c-4.695313 0-9.214844.742188-13.457031 2.101562 17.761718 5.691407 30.625 22.332032 30.625 41.984376 0 19.648437-12.863282 36.292968-30.625 41.980468 4.242187 1.359375 8.761718 2.101563 13.457031 2.101563 24.34375 0 44.082031-19.738281 44.082031-44.082031 0-24.347657-19.738281-44.085938-44.082031-44.085938zm0 0" fill="#5390c4"/><path d="m392.011719 73.46875h-32.023438c-6.621093 0-11.988281-5.367188-11.988281-11.988281v-3c0-6.621094 5.367188-11.988281 11.988281-11.988281h32.023438c6.621093 0 11.988281 5.367187 11.988281 11.988281v3c0 6.621093-5.367188 11.988281-11.988281 11.988281zm0 0" fill="#5b9ed6"/><path d="m392.011719 46.492188h-32.023438 14.523438c6.621093 0 11.988281 5.367187 11.988281 11.988281v3c0 6.621093-5.367188 11.992187-11.988281 11.992187h17.5c6.621093 0 11.988281-5.367187 11.988281-11.992187v-3c0-6.621094-5.367188-11.988281-11.988281-11.988281zm0 0" fill="#5390c4"/><path d="m392.011719 121.46875h-32.023438c-6.621093 0-11.988281-5.367188-11.988281-11.988281v-3c0-6.621094 5.367188-11.988281 11.988281-11.988281h32.023438c6.621093 0 11.988281 5.367187 11.988281 11.988281v3c0 6.621093-5.367188 11.988281-11.988281 11.988281zm0 0" fill="#5b9ed6"/><path d="m392.011719 169.46875h-32.023438c-6.621093 0-11.988281-5.367188-11.988281-11.988281v-3c0-6.621094 5.367188-11.988281 11.988281-11.988281h32.023438c6.621093 0 11.988281 5.367187 11.988281 11.988281v3c0 6.621093-5.367188 11.988281-11.988281 11.988281zm0 0" fill="#5b9ed6"/><path d="m392.011719 94.492188h-32.023438 14.523438c6.621093 0 11.988281 5.367187 11.988281 11.988281v3c0 6.621093-5.367188 11.992187-11.988281 11.992187h17.5c6.621093 0 11.988281-5.367187 11.988281-11.992187v-3c0-6.621094-5.367188-11.988281-11.988281-11.988281zm0 0" fill="#5390c4"/><path d="m392.011719 142.492188h-32.023438 14.523438c6.621093 0 11.988281 5.367187 11.988281 11.988281v3c0 6.621093-5.367188 11.992187-11.988281 11.992187h17.5c6.621093 0 11.988281-5.367187 11.988281-11.992187v-3c0-6.621094-5.367188-11.988281-11.988281-11.988281zm0 0" fill="#5390c4"/><path d="m463.179688 169.46875h-23.691407c-6.160156 0-11.15625-4.992188-11.15625-11.152344v-100.667968c0-6.160157 4.996094-11.15625 11.15625-11.15625h23.691407c6.160156 0 11.152343 4.996093 11.152343 11.15625v100.667968c0 6.160156-4.992187 11.152344-11.152343 11.152344zm0 0" fill="#5b9ed6"/><path d="m463.179688 46.492188h-17.167969c6.160156 0 11.152343 4.996093 11.152343 11.15625v100.667968c0 6.160156-4.992187 11.152344-11.152343 11.152344h17.167969c6.160156 0 11.152343-4.992188 11.152343-11.152344v-100.667968c0-6.160157-4.992187-11.15625-11.152343-11.15625zm0 0" fill="#5390c4"/><path d="m359.582031 238.054688c0 28.441406 23.140625 51.582031 51.585938 51.582031 28.441406 0 51.582031-23.140625 51.582031-51.582031 0-28.445313-23.140625-51.585938-51.582031-51.585938-28.445313 0-51.585938 23.140625-51.585938 51.585938zm88.167969 0c0 20.171874-16.410156 36.582031-36.582031 36.582031-20.175781 0-36.585938-16.410157-36.585938-36.582031 0-20.171876 16.410157-36.585938 36.585938-36.585938 20.171875 0 36.582031 16.414062 36.582031 36.585938zm0 0"/><path d="m392.011719 38.992188h-32.023438c-10.746093 0-19.488281 8.742187-19.488281 19.488281v3c0 10.746093 8.742188 19.488281 19.488281 19.488281h32.023438c10.746093 0 19.488281-8.742188 19.488281-19.488281v-3c0-10.746094-8.742188-19.488281-19.488281-19.488281zm4.488281 22.488281c0 2.476562-2.015625 4.488281-4.488281 4.488281h-32.023438c-2.472656 0-4.488281-2.011719-4.488281-4.488281v-3c0-2.472657 2.015625-4.488281 4.488281-4.488281h32.023438c2.476562 0 4.488281 2.015624 4.488281 4.488281zm0 0"/><path d="m340.5 109.480469c0 10.746093 8.742188 19.488281 19.488281 19.488281h32.023438c10.746093 0 19.488281-8.742188 19.488281-19.488281v-3c0-10.746094-8.742188-19.488281-19.488281-19.488281h-32.023438c-10.746093 0-19.488281 8.742187-19.488281 19.488281zm15-3c0-2.472657 2.015625-4.488281 4.488281-4.488281h32.023438c2.472656 0 4.488281 2.015624 4.488281 4.488281v3c0 2.476562-2.015625 4.488281-4.488281 4.488281h-32.023438c-2.476562 0-4.488281-2.011719-4.488281-4.488281zm0 0"/><path d="m340.5 157.480469c0 10.746093 8.742188 19.488281 19.488281 19.488281h32.023438c10.746093 0 19.488281-8.742188 19.488281-19.488281v-3c0-10.746094-8.742188-19.488281-19.488281-19.488281h-32.023438c-10.746093 0-19.488281 8.742187-19.488281 19.488281zm15-3c0-2.472657 2.015625-4.488281 4.488281-4.488281h32.023438c2.472656 0 4.488281 2.015624 4.488281 4.488281v3c0 2.476562-2.015625 4.488281-4.488281 4.488281h-32.023438c-2.476562 0-4.488281-2.011719-4.488281-4.488281zm0 0"/><path d="m463.179688 176.96875c10.285156 0 18.652343-8.367188 18.652343-18.652344v-100.667968c0-10.285157-8.367187-18.65625-18.652343-18.65625h-23.691407c-10.285156 0-18.652343 8.371093-18.652343 18.65625v100.667968c0 10.285156 8.367187 18.652344 18.652343 18.652344zm-27.347657-18.652344v-100.667968c0-2.015626 1.640625-3.65625 3.65625-3.65625h23.6875c2.015625 0 3.65625 1.640624 3.65625 3.65625v100.667968c0 2.015625-1.640625 3.652344-3.65625 3.652344h-23.6875c-2.015625 0-3.65625-1.640625-3.65625-3.652344zm0 0"/><path d="m281.667969 78.304688c4.140625 0 7.5-3.359376 7.5-7.5 0-4.144532-3.359375-7.5-7.5-7.5h-25.667969c-4.144531 0-7.5 3.355468-7.5 7.5 0 4.140624 3.355469 7.5 7.5 7.5zm0 0"/><path d="m68.65625 63.304688h-.6875c-4.144531 0-7.5 3.355468-7.5 7.5 0 4.140624 3.355469 7.5 7.5 7.5h.6875c4.144531 0 7.5-3.359376 7.5-7.5 0-4.144532-3.355469-7.5-7.5-7.5zm0 0"/><path d="m233.503906 180.585938-12.605468-56.941407c-1.757813-7.953125-13.234376-7.738281-14.699219.273438l-9.042969 49.476562h-16.226562l-11.390626-70.398437c-1.324218-8.195313-13.070312-8.410156-14.75-.324219l-16.976562 81.859375-14.898438-46.023438c-2.097656-6.472656-11.097656-7.03125-13.949218-.820312l-18.628906 40.492188h-14.933594c-4.140625 0-7.5 3.359374-7.5 7.5 0 4.144531 3.359375 7.5 7.5 7.5h19.738281c2.929687 0 5.589844-1.703126 6.8125-4.363282l12.605469-27.40625 17.710937 54.695313c2.359375 7.289062 12.917969 6.734375 14.476563-.789063l14.476562-69.796875 5.917969 36.574219c.589844 3.632812 3.726563 6.300781 7.40625 6.300781h28.859375c3.621094 0 6.726562-2.585937 7.375-6.148437l3.496094-19.109375 9.320312 42.109375c1.539063 6.960937 11.058594 8.035156 14.105469 1.582031l9.332031-19.777344h24.558594c4.144531 0 7.5-3.355469 7.5-7.5s-3.355469-7.5-7.5-7.5h-29.308594c-6.527344 0-7.464844 6.625-8.78125 8.535157zm0 0"/><path d="m487.765625 0h-151.015625c-4.144531 0-7.5 3.355469-7.5 7.5s3.355469 7.5 7.5 7.5h151.015625c5.09375 0 9.234375 4.144531 9.234375 9.234375v269.515625c0 5.09375-4.144531 9.234375-9.234375 9.234375h-463.53125c-5.09375 0-9.234375-4.140625-9.234375-9.234375v-269.515625c0-5.09375 4.144531-9.234375 9.234375-9.234375h279.765625c4.144531 0 7.5-3.355469 7.5-7.5s-3.355469-7.5-7.5-7.5h-279.765625c-13.363281 0-24.234375 10.871094-24.234375 24.234375v269.515625c0 13.363281 10.871094 24.234375 24.234375 24.234375h31.265625v16.484375c0 4.144531 3.355469 7.5 7.5 7.5h90c4.144531 0 7.5-3.355469 7.5-7.5v-16.484375h191v16.484375c0 4.144531 3.355469 7.5 7.5 7.5h90c4.144531 0 7.5-3.355469 7.5-7.5v-16.484375h31.265625c13.363281 0 24.234375-10.871094 24.234375-24.234375v-269.515625c0-13.363281-10.871094-24.234375-24.234375-24.234375zm-342.265625 326.96875h-75v-8.984375h75zm296 0h-75v-8.984375h75zm0 0"/><path d="m42 139.96875c-4.144531 0-7.5 3.359375-7.5 7.5v124.023438c0 4.144531 3.355469 7.5 7.5 7.5h263c4.144531 0 7.5-3.355469 7.5-7.5v-225c0-4.140626-3.355469-7.5-7.5-7.5h-263c-4.144531 0-7.5 3.359374-7.5 7.5v66.976562c0 4.144531 3.355469 7.5 7.5 7.5s7.5-3.355469 7.5-7.5v-59.476562h248v210h-248v-116.523438c0-4.140625-3.355469-7.5-7.5-7.5zm0 0"/></svg>