<svg id="Capa_1" enable-background="new 0 0 511.153 511.153" height="512" viewBox="0 0 511.153 511.153" width="512" xmlns="http://www.w3.org/2000/svg"><g><g><path d="m235.881 69.025-87.944 47.787-4.293 92.187-26.32 45.859 20.95 12.984v45.937l33.16 9.905.831 13.639v24.435l-12 1.035s-22.501 4.499-22.876 4.124 0 17.867 0 17.867l12.52 21.633c2.128.579 4.365.894 6.677.894h56.448c2.586 0 4.682 2.096 4.682 4.682v88.044c0 1.996 1.618 3.615 3.615 3.615h154.551c1.996 0 3.615-1.618 3.615-3.615v-95.447-271.65z" fill="#fed2a4"/><path d="m217.716 60.94-62.88 28.18-7.83 7.56c-11.51 11.12-18.02 26.43-18.02 42.44v56.23c0 2.81-.73 5.57-2.13 8.01l-28.79 50.19c-2.1 3.66-.74 8.34 2.99 10.31l17.386 9.204 6.094 3.226v38.62c0 3.56 2.32 6.7 5.71 7.74l33.79 10.37c2.48.76 4.17 3.05 4.17 5.64v.065 10.903 5.442c0 3.258-2.642 5.9-5.9 5.9h-26.17c-2.717 0-4.92 2.203-4.92 4.92v16.05c0 14.02 11.36 25.37 25.37 25.37h4.73c-5.875-4.645-9.649-11.83-9.649-19.906v-3.854c0-9.453 7.663-17.116 17.116-17.116h7.945c6.588 0 11.929-5.341 11.929-11.929v-10.381c0-.108-.018-.212-.024-.318 0-.026.004-.052.004-.078v-16.41c0-2.59-1.69-4.88-4.17-5.64l-33.79-10.37c-3.39-1.04-5.71-4.18-5.71-7.74v-38.62l-17.118-9.062 20.223-35.255c1.4-2.44 2.13-5.2 2.13-8.01v-56.23c0-16.01 6.51-31.32 18.02-42.44l2.773-2.677c3.356-3.24 7.135-6.011 11.235-8.236l52.049-28.254 4.654 3.427 140.564 62.558v-7.829z" fill="#ffbd86"/><circle cx="21.011" cy="349.54" fill="#6bd9e7" r="13.252"/><g id="XMLID_193_"><g><path d="m483.77 243.945-111.05-8.354-9.564 12.629c.32 1.81.49 3.67.49 5.58v17.54c0 9.1-3.89 17.76-10.69 23.8l-27.32 24.26c-7.5 6.66-8.23 18.11-1.65 25.68l46.36 53.23c6.64 7.62 18.21 8.41 25.82 1.76l36.99-32.34c22.32-19.51 39.88-43.37 51.86-69.76 5.14-11.32 9.25-23.1 12.27-35.21z" fill="#baafb9"/><path d="m503.396 213.01c0 16.93-2.09 33.63-6.11 49.75l-134.13-14.54c-2.64-14.92-15.67-26.25-31.34-26.25-8.79 0-16.75 3.56-22.51 9.32-5.77 5.76-9.33 13.72-9.33 22.51v24.374c0 .55-.265 1.066-.713 1.386l-25.967 18.56c-5.11 3.64-12.2-.01-12.2-6.28v-128.53c0-40.97-33.22-74.19-74.2-74.19h-30.7c-19.242 0-34.84-15.598-34.84-34.84v-35.72c0-6.108 4.952-11.06 11.06-11.06h165.47c113.5 0 205.51 92.01 205.51 205.51z" fill="#9b8e99"/><path d="m191.008 89.239c-18.305-1.042-32.829-16.393-32.829-34.959v-35.72c0-6.108 4.952-11.06 11.06-11.06h-36.823c-6.108 0-11.06 4.952-11.06 11.06v35.72c0 19.242 15.598 34.84 34.84 34.84h30.7c1.381 0 2.751.045 4.112.119z" fill="#8b8089"/></g></g></g><g><path d="m21.011 328.788c-11.443 0-20.752 9.31-20.752 20.752s9.31 20.752 20.752 20.752 20.752-9.309 20.752-20.752-9.309-20.752-20.752-20.752zm0 26.504c-3.172 0-5.752-2.581-5.752-5.752 0-3.172 2.581-5.752 5.752-5.752s5.752 2.581 5.752 5.752-2.58 5.752-5.752 5.752z"/><path d="m107.494 322.905-19.128-8.023c-3.818-1.602-8.214.196-9.817 4.016-1.602 3.82.196 8.215 4.016 9.817l19.128 8.022c.948.398 1.931.586 2.898.586 2.931 0 5.714-1.729 6.919-4.601 1.601-3.82-.197-8.215-4.016-9.817z"/><path d="m101.692 362.342-19.128 8.023c-3.82 1.602-5.618 5.997-4.016 9.817 1.205 2.873 3.989 4.601 6.919 4.601.967 0 1.951-.188 2.898-.586l19.128-8.022c3.82-1.603 5.618-5.998 4.016-9.817-1.603-3.821-6.001-5.615-9.817-4.016z"/><path d="m80.536 349.54c0-4.142-3.358-7.5-7.5-7.5h-8.248c-4.142 0-7.5 3.358-7.5 7.5s3.358 7.5 7.5 7.5h8.248c4.142 0 7.5-3.358 7.5-7.5z"/><path d="m20.223 290.412 10.348 3.98c.885.341 1.795.502 2.691.502 3.013 0 5.855-1.829 7.001-4.81 1.487-3.866-.441-8.205-4.308-9.692l-10.348-3.98c-3.865-1.49-8.206.441-9.692 4.308-1.487 3.865.441 8.204 4.308 9.692z"/><path d="m30.193 404.752-10.375 3.91c-3.876 1.46-5.834 5.787-4.374 9.663 1.132 3.005 3.987 4.857 7.02 4.857.878 0 1.772-.156 2.643-.484l10.375-3.91c3.876-1.46 5.834-5.787 4.374-9.663-1.46-3.875-5.788-5.834-9.663-4.373z"/><path d="m260.01 399.815h-103.423c-9.854 0-17.871-8.017-17.871-17.871v-13.477h23.591c7.387 0 13.397-6.01 13.397-13.397v-16.409c0-5.923-3.804-11.07-9.466-12.808l-33.787-10.372c-.251-.077-.42-.306-.42-.568v-38.62c0-2.778-1.536-5.329-3.991-6.628l-23.464-12.385 28.781-50.183c2.048-3.571 3.13-7.634 3.13-11.75v-56.227c0-13.893 5.732-27.395 15.727-37.045l5.651-5.457h29.033c36.776 0 66.695 29.919 66.695 66.695v.159c0 4.142 3.358 7.5 7.5 7.5s7.5-3.358 7.5-7.5v-.159c0-45.047-36.648-81.695-81.695-81.695h-30.707c-15.071 0-27.333-12.262-27.333-27.333v-35.722c0-1.964 1.598-3.563 3.563-3.563h165.46c37.987 0 74.888 10.784 106.714 31.186 3.486 2.235 8.125 1.222 10.361-2.267 2.235-3.487 1.221-8.126-2.267-10.361-34.244-21.954-73.944-33.558-114.806-33.558h-165.46c-10.235 0-18.563 8.327-18.563 18.563v35.723c0 17.533 10.715 32.609 25.939 39.028-11.664 12.288-18.311 28.818-18.311 45.806v56.227c0 1.502-.395 2.984-1.142 4.287l-28.781 50.183c-2.037 3.551-2.532 7.673-1.395 11.606 1.138 3.933 3.757 7.154 7.375 9.07l19.486 10.316v34.104c0 6.894 4.428 12.885 11.019 14.908l32.655 10.024v13.622h-24.562c-6.852 0-12.427 5.575-12.427 12.427v16.05c0 18.125 14.746 32.871 32.871 32.871h53.625v88.838c0 4.142 3.358 7.5 7.5 7.5s7.5-3.358 7.5-7.5v-88.838h34.797c4.142 0 7.5-3.358 7.5-7.5s-3.357-7.5-7.499-7.5z"/><path d="m439.333 53.763c-3.096-2.753-7.837-2.472-10.588.623-2.752 3.096-2.473 7.836.623 10.588 42.278 37.58 66.526 91.538 66.526 148.038 0 14.098-1.509 28.025-4.418 41.573l-26.114-2.831c-4.114-.443-7.817 2.531-8.265 6.648-.446 4.118 2.53 7.818 6.648 8.265l23.979 2.599c-10.546 35.585-30.989 67.88-59.509 92.816l-36.987 32.338c-2.171 1.898-4.95 2.837-7.83 2.641-2.878-.196-5.506-1.502-7.4-3.677l-46.353-53.233c-3.867-4.44-3.431-11.234.972-15.144l27.314-24.258c8.398-7.458 13.214-18.177 13.214-29.409v-14.711l59.91 6.495c.274.03.547.044.817.044 3.779 0 7.03-2.849 7.447-6.692.446-4.118-2.53-7.818-6.648-8.265l-63.569-6.891c-5.232-15.585-19.965-26.849-37.29-26.849-21.688 0-39.333 17.645-39.333 39.333v21.393l-23.542 16.818c-.064.046-.094.054-.094.054-.056.01-.21-.068-.239-.123 0 0-.011-.03-.011-.108v-96.402c0-4.142-3.358-7.5-7.5-7.5s-7.5 3.358-7.5 7.5v96.402c0 5.726 3.163 10.911 8.254 13.531 5.092 2.621 11.149 2.18 15.809-1.149l26.683-19.062c1.971-1.408 3.14-3.681 3.14-6.103v-25.252c0-13.417 10.916-24.333 24.333-24.333 12.004 0 21.999 8.74 23.972 20.189 0 .001 0 .003.001.005.232 1.346.359 2.727.359 4.139v17.537c0 6.949-2.979 13.58-8.175 18.193l-27.314 24.258c-10.527 9.349-11.569 25.593-2.324 36.21l46.353 53.233c2.099 2.41 4.578 4.368 7.315 5.828v94.591c0 4.142 3.358 7.5 7.5 7.5s7.5-3.358 7.5-7.5v-91.739c5.193-.571 10.085-2.69 14.101-6.201l36.987-32.338c46.269-40.454 72.806-98.903 72.806-160.363.002-60.782-26.081-118.826-71.56-159.249z"/></g></g></svg>