<svg id="Layer_1" enable-background="new 0 0 511 511" height="512" viewBox="0 0 511 511" width="512" xmlns="http://www.w3.org/2000/svg"><g><circle cx="255.5" cy="311.5" fill="#e5ecf5" r="192"/><path d="m324.53 132.296c58.815 30.706 98.97 92.261 98.97 163.204 0 101.62-82.38 184-184 184-70.942 0-132.497-40.155-163.204-98.97 27.727 71.93 97.5 122.97 179.204 122.97 106.039 0 192-85.961 192-192 0-81.704-51.04-151.477-122.97-179.204z" fill="#cad8eb"/><path d="m207.5 239.5-24-24v-82.029c-70.361 28.484-120 97.454-120 178.029h72z" fill="#f94d66"/><path d="m191.5 367.5h-40l-53.629 53.629c34.69 49.785 92.349 82.371 157.629 82.371v-72z" fill="#f94d66"/><path d="m239.5 479.5c-70.942 0-132.497-40.155-163.204-98.97 27.5 71.342 96.363 122.124 177.204 122.95v-24.52c-4.622.35-9.289.54-14 .54z" fill="#de3052"/><path d="m439.194 367.5h-47.694l-24-24h-64v104l36.46 36.46c47.305-23.211 83.658-65.305 99.234-116.46z" fill="#f94d66"/><path d="m439.194 367.5h-30.319c-17.88 42.007-50.931 75.995-92.272 95.102l22.02 22.02c47.959-23.069 84.848-65.484 100.571-117.122z" fill="#de3052"/><path d="m279.5 263.5h80l32 32h55.331c-8.132-98.551-90.682-176-191.331-176v120z" fill="#f94d66"/><path d="m324.53 132.296c58.815 30.706 98.97 92.261 98.97 163.204h23.336c-6.166-74.723-55.12-137.306-122.306-163.204z" fill="#de3052"/><g><g><path d="m215.5 304h16v15h-16z" fill="#fff"/></g><g><path d="m279.5 304h16v15h-16z" fill="#fff"/></g></g><g><circle cx="255.5" cy="103.5" fill="#e5ecf5" r="96"/><path d="m255.5 7.5c-4.064 0-8.069.255-12 .745 47.355 5.905 84 46.299 84 95.255s-36.645 89.349-84 95.255c3.931.49 7.936.745 12 .745 53.019 0 96-42.981 96-96s-42.981-96-96-96z" fill="#cad8eb"/><g><circle cx="255.5" cy="103.5" fill="#f94d66" r="32"/><path d="m257.712 71.585c9.282 3.968 15.788 13.181 15.788 23.915 0 14.359-11.641 26-26 26-10.734 0-19.947-6.506-23.915-15.788 1.137 16.64 14.987 29.788 31.915 29.788 17.673 0 32-14.327 32-32 0-16.929-13.148-30.778-29.788-31.915z" fill="#de3052"/><g><path d="m247.5 304h16v15h-16z"/><path d="m353.238 137.552c3.728-10.67 5.762-22.127 5.762-34.052 0-57.07-46.43-103.5-103.5-103.5s-103.5 46.43-103.5 103.5c0 25.155 9.024 48.24 24 66.195v48.911l20.894 20.894-64.5 64.5h-61.227c2.169-54.676 27.98-104.848 71.602-138.566l-9.174-11.867c-23.607 18.248-43.143 41.948-56.492 68.539-14.003 27.891-21.103 57.968-21.103 89.394 0 110.005 89.495 199.5 199.5 199.5s199.5-89.495 199.5-199.5c0-72.06-38.962-138.593-101.762-173.948zm85.241 150.448h-43.873l-32-32h-80l-19.606-19.606v-29.667c36.612-2.635 68.006-24.397 84.222-55.319 50.427 28.95 83.95 79.74 91.257 136.592zm-271.479-184.5c0-48.799 39.701-88.5 88.5-88.5s88.5 39.701 88.5 88.5-39.701 88.5-88.5 88.5-88.5-39.701-88.5-88.5zm81 392.335c-57.314-2.304-107.984-30.864-140.261-73.967l46.867-46.868h33.787l59.607 59.606zm63-104.335v-40.5h53.394l24 24h40.344c-15.821 43.026-47.245 78.568-87.372 99.759l-30.366-30.365v-36.894h-15v43.106l30.98 30.981c-19.813 8.358-41.381 13.339-63.98 14.248v-67.441l-68.394-68.394h-46.213l-49.281 49.28c-16.554-26.381-26.618-57.223-27.947-90.28h67.441l79.5-79.5-27.106-27.106v-28.012c15.871 12.682 35.538 20.8 57 22.344v35.88l28.394 28.394h80l32 32h51.386c.13 2.824.22 5.655.22 8.5 0 16.78-2.265 33.039-6.482 48.5h-38.912l-24-24h-74.606v55.5z"/><path d="m222.783 125.609-17.842 17.842 10.607 10.607 17.842-17.842c4.335 2.939 9.284 5.032 14.609 6.06v25.224h15v-25.223c5.325-1.028 10.274-3.121 14.609-6.06l17.842 17.842 10.607-10.607-17.842-17.842c2.939-4.335 5.032-9.284 6.06-14.609h25.225v-15.001h-25.223c-1.028-5.325-3.121-10.274-6.06-14.609l17.842-17.842-10.607-10.607-17.842 17.842c-4.335-2.939-9.284-5.032-14.609-6.06v-25.224h-15v25.223c-5.325 1.028-10.274 3.121-14.609 6.06l-17.842-17.842-10.607 10.607 17.842 17.842c-2.939 4.335-5.032 9.284-6.06 14.609h-25.225v15h25.223c1.028 5.326 3.121 10.275 6.06 14.61zm32.717-46.609c13.51 0 24.5 10.99 24.5 24.5s-10.99 24.5-24.5 24.5-24.5-10.99-24.5-24.5 10.99-24.5 24.5-24.5z"/><path d="m247.5 96h16v15h-16z"/></g></g></g></g></svg>