<svg height="512pt" viewBox="0 0 512 512" width="512pt" xmlns="http://www.w3.org/2000/svg"><path d="m7.5 476.144531h497v28.355469h-497zm0 0" fill="#7d7d7d"/><path d="m7.5 476.144531h497v12.75h-497zm0 0" fill="#525252"/><path d="m130.808594 133.664062h250.382812v342.480469h-250.382812zm0 0" fill="#b6e5f0"/><path d="m111.796875 106.664062h288.410156v27h-288.410156zm0 0" fill="#7d7d7d"/><path d="m353.667969 106.664062h46.539062v27h-46.539062zm0 0" fill="#525252"/><path d="m7.5 183.824219h123.308594v27h-123.308594zm0 0" fill="#7d7d7d"/><path d="m107 183.824219h23.808594v27h-23.808594zm0 0" fill="#525252"/><path d="m107 183.824219h23.808594v27h-23.808594zm0 0" fill="#525252"/><path d="m189 350h134v126.144531h-134zm0 0" fill="#5b9ed6"/><path d="m238.832031 350h34.332031v126.144531h-34.332031zm0 0" fill="#4d86b5"/><path d="m18.332031 210.824219h112.476563v265.320312h-112.476563zm0 0" fill="#b6e5f0"/><path d="m107 210.824219h23.808594v265.320312h-23.808594zm0 0" fill="#9bc3cc"/><path d="m107 210.824219h23.808594v265.320312h-23.808594zm0 0" fill="#9bc3cc"/><path d="m493.667969 476.144531h-112.476563v-265.320312h112.476563zm0 0" fill="#b6e5f0"/><path d="m381.191406 210.824219h23.808594v265.320312h-23.808594zm0 0" fill="#9bc3cc"/><g fill="#5b9ed6"><path d="m158.332031 187h40.667969v80.667969h-40.667969zm0 0"/><path d="m235.667969 187h40.667969v80.667969h-40.667969zm0 0"/><path d="m313 187h40.667969v80.667969h-40.667969zm0 0"/><path d="m54.238281 303.152344h40.667969v80.664062h-40.667969zm0 0"/><path d="m457.761719 383.816406h-40.667969v-80.664062h40.667969zm0 0"/></g><path d="m381.191406 183.824219h123.308594v27h-123.308594zm0 0" fill="#7d7d7d"/><path d="m381.191406 183.824219h23.808594v27h-23.808594zm0 0" fill="#525252"/><path d="m241 106.664062h-54.800781v-99.164062h139.601562v99.164062zm0 0" fill="#ef2d57"/><path d="m301.136719 7.5h24.667969v99.164062h-24.667969zm0 0" fill="#d4284d"/><path d="m279 49.582031h-15.5v-15.5c0-4.140625-3.359375-7.5-7.5-7.5s-7.5 3.359375-7.5 7.5v15.5h-15.5c-4.140625 0-7.5 3.359375-7.5 7.5 0 4.144531 3.359375 7.5 7.5 7.5h15.5v15.5c0 4.144531 3.359375 7.5 7.5 7.5s7.5-3.355469 7.5-7.5v-15.5h15.5c4.140625 0 7.5-3.355469 7.5-7.5 0-4.140625-3.359375-7.5-7.5-7.5zm0 0" fill="#fff"/><path d="m199 275.167969c4.140625 0 7.5-3.359375 7.5-7.5v-80.667969c0-4.140625-3.359375-7.5-7.5-7.5h-40.667969c-4.140625 0-7.5 3.359375-7.5 7.5v80.667969c0 4.140625 3.359375 7.5 7.5 7.5zm-33.167969-80.667969h25.667969v65.667969h-25.667969zm0 0"/><path d="m235.667969 275.167969h40.667969c4.140624 0 7.5-3.359375 7.5-7.5v-80.667969c0-4.140625-3.359376-7.5-7.5-7.5h-40.667969c-4.144531 0-7.5 3.359375-7.5 7.5v80.667969c0 4.140625 3.355469 7.5 7.5 7.5zm7.5-80.667969h25.667969v65.667969h-25.667969zm0 0"/><path d="m94.90625 391.316406c4.140625 0 7.5-3.355468 7.5-7.5v-80.664062c0-4.144532-3.359375-7.5-7.5-7.5h-40.667969c-4.140625 0-7.5 3.355468-7.5 7.5v80.664062c0 4.144532 3.359375 7.5 7.5 7.5zm-33.167969-80.664062h25.667969v65.664062h-25.667969zm0 0"/><path d="m417.09375 391.316406h40.667969c4.140625 0 7.5-3.355468 7.5-7.5v-80.664062c0-4.144532-3.359375-7.5-7.5-7.5h-40.667969c-4.140625 0-7.5 3.355468-7.5 7.5v80.664062c0 4.144532 3.359375 7.5 7.5 7.5zm7.5-80.664062h25.667969v65.664062h-25.667969zm0 0"/><path d="m313 275.167969h40.667969c4.140625 0 7.5-3.359375 7.5-7.5v-80.667969c0-4.140625-3.359375-7.5-7.5-7.5h-40.667969c-4.140625 0-7.5 3.359375-7.5 7.5v80.667969c0 4.140625 3.359375 7.5 7.5 7.5zm7.5-80.667969h25.667969v65.667969h-25.667969zm0 0"/><path d="m248.5 80.082031c0 4.144531 3.359375 7.5 7.5 7.5s7.5-3.355469 7.5-7.5v-15.5h15.5c4.140625 0 7.5-3.355469 7.5-7.5 0-4.140625-3.359375-7.5-7.5-7.5h-15.5v-15.5c0-4.140625-3.359375-7.5-7.5-7.5s-7.5 3.359375-7.5 7.5v15.5h-15.5c-4.140625 0-7.5 3.359375-7.5 7.5 0 4.144531 3.359375 7.5 7.5 7.5h15.5zm0 0"/><path d="m504.5 218.324219c4.140625 0 7.5-3.359375 7.5-7.5v-27c0-4.140625-3.359375-7.5-7.5-7.5h-45.5c-4.140625 0-7.5 3.359375-7.5 7.5s3.359375 7.5 7.5 7.5h38v12c-12.6875 0-102.910156 0-108.308594 0v-12h32.972656c4.144532 0 7.5-3.359375 7.5-7.5s-3.355468-7.5-7.5-7.5h-32.972656v-35.160157h11.511719c4.144531 0 7.5-3.355468 7.5-7.5v-27c0-4.140624-3.355469-7.5-7.5-7.5h-66.902344v-91.664062c0-4.140625-3.355469-7.5-7.5-7.5h-139.601562c-4.144531 0-7.5 3.359375-7.5 7.5v91.667969h-66.902344c-4.144531 0-7.5 3.355469-7.5 7.5v26.996093c0 4.144532 3.355469 7.5 7.5 7.5h11.511719v35.160157h-115.808594c-4.140625 0-7.5 3.359375-7.5 7.5v27c0 4.140625 3.359375 7.5 7.5 7.5h3.332031v49.34375c0 4.140625 3.359375 7.5 7.5 7.5 4.144531 0 7.5-3.359375 7.5-7.5v-49.34375h97.476563v250.324219h-97.476563v-163.742188c0-4.144531-3.355469-7.5-7.5-7.5-4.140625 0-7.5 3.355469-7.5 7.5v163.738281h-3.332031c-4.140625 0-7.5 3.359375-7.5 7.5v28.355469c0 4.140625 3.359375 7.5 7.5 7.5h497c4.140625 0 7.5-3.359375 7.5-7.5v-28.355469c0-4.140625-3.359375-7.5-7.5-7.5h-3.332031v-250.320312zm-385.203125-104.15625h116.558594c4.140625 0 7.5-3.359375 7.5-7.5 0-4.144531-3.359375-7.5-7.5-7.5h-42.15625v-84.167969h124.601562v84.167969h-39.96875c-4.140625 0-7.5 3.355469-7.5 7.5 0 4.140625 3.359375 7.5 7.5 7.5h114.371094v11.996093h-273.40625zm-104.296875 77.15625h108.308594v12h-108.308594zm123.308594-50.160157h235.382812v327.480469h-43.191406v-118.644531c0-4.140625-3.359375-7.5-7.5-7.5h-134c-4.140625 0-7.5 3.359375-7.5 7.5v118.644531h-43.191406zm58.191406 327.480469v-111.144531h52v111.144531zm67-111.144531h52v111.144531h-52zm233.5 139.5h-482v-13.355469h482zm-10.832031-28.355469h-97.476563v-250.320312h97.472656v250.320312zm0 0"/></svg>