<svg id="Capa_1" enable-background="new 0 0 511.523 511.523" height="512" viewBox="0 0 511.523 511.523" width="512" xmlns="http://www.w3.org/2000/svg"><g><g><path d="m459.873 74.152c-28.95-7.214-51.664-30.166-58.557-59.243-1.03-4.344-4.911-7.408-9.375-7.408h-271.358c-4.461 0-8.345 3.059-9.374 7.399-4.259 17.971-14.571 33.591-28.657 44.61l7.579 8.741 9.146 317.84 73.444 73.425 75.476 42.844 7.565 1.664 15.707-3.455c114.286-25.135 195.695-126.395 195.695-243.412v-173.658c0-4.419-3.003-8.279-7.291-9.347z" fill="#99e6fc"/><path d="m103.488 270.953v-173.435-62.607c-10.758 19.565-29.436 34.156-51.729 39.439-4.341 1.029-7.399 4.913-7.399 9.374v173.434c0 117.017 81.409 218.277 195.695 243.412l15.707 3.455 5.52-1.214c-93.961-36.998-157.794-128.246-157.794-231.858z" fill="#62dbfb"/><path d="m247.357 467.363c-47.732-10.498-90.886-37.257-121.509-75.347-30.624-38.091-47.489-85.984-47.489-134.858v-155.936c13.207-5.689 25.282-13.862 35.571-24.151 10.288-10.289 18.462-22.365 24.15-35.571h236.36c5.607 13.017 13.628 24.943 23.704 35.134 10.118 10.232 22.006 18.412 35.019 24.168v156.355c0 48.874-16.865 96.768-47.489 134.858-30.623 38.09-73.776 64.849-121.51 75.347l-8.403 1.848z" fill="#f2fbff"/><path d="m394.707 148.921c-7.622-8.768-20.514-11.232-30.821-5.871-8.54 4.442-13.344 12.738-13.793 21.366l-11.874 8.222c-5.342 3.699-12.543 3.485-17.523-.689-11.097-9.3-24.234-16.246-38.643-20.066-6.314-1.674-10.721-7.37-10.721-13.902v-14.313c6.838-5.282 10.923-13.955 9.713-23.504-1.461-11.526-10.825-20.721-22.373-21.996-15.373-1.697-28.385 10.294-28.385 25.324 0 8.214 3.89 15.516 9.924 20.176v14.582c0 6.457-4.298 12.144-10.526 13.849-15.208 4.165-28.973 11.817-40.385 22.043-4.863 4.358-12.039 4.914-17.498 1.332l-14.923-9.791c-1.113-6.463-4.988-12.432-11.238-15.984-9.881-5.616-22.658-2.951-29.469 6.148-7.959 10.632-5.212 25.599 5.722 32.773 5.502 3.61 11.987 4.528 17.913 3.084l15.119 9.919c5.377 3.528 7.811 10.214 5.829 16.332-3.159 9.75-4.868 20.154-4.868 30.957 0 20.476 6.133 39.518 16.661 55.394 3.611 5.446 3.107 12.637-1.24 17.516l-6.929 7.777c-6.421.32-12.7 3.404-16.886 9.16-6.086 8.369-5.485 20.084 1.439 27.773 9.01 10.005 24.41 9.746 33.115-.023 4.117-4.62 5.941-10.484 5.567-16.207l7.148-8.022c4.32-4.848 11.337-6.168 17.161-3.295 13.371 6.596 28.423 10.304 44.341 10.304 9.067 0 17.852-1.205 26.207-3.46 6.129-1.655 12.606 1.051 15.892 6.483l6.823 11.28c-1.924 6.45-1.046 13.708 3.125 19.779 6.565 9.554 19.496 12.768 29.768 7.395 11.952-6.252 15.995-21.169 9.121-32.534-3.521-5.821-9.197-9.537-15.386-10.746l-6.299-10.413c-3.415-5.646-2.539-12.88 2.102-17.57 17.941-18.132 29.022-43.065 29.022-70.588 0-11.97-2.098-23.449-5.943-34.092-2.212-6.123-.006-12.965 5.346-16.671l11.767-8.148c7.267 2.308 15.484 1.349 22.237-3.327 12.357-8.559 14.808-26.083 4.661-37.756z" fill="#f07281"/><g><path d="m169.863 362.003c-6.471-7.693-6.842-19.003-.944-27.144 2.72-3.754 6.329-6.375 10.287-7.839 5.052-1.868 9.661-4.765 13.245-8.786l.306-.344c4.347-4.879 4.852-12.07 1.241-17.516-10.528-15.876-16.661-34.918-16.661-55.394 0-10.803 1.708-21.206 4.868-30.956 1.983-6.118-.451-12.804-5.829-16.332l-5.893-3.866c-4.788-3.141-10.288-5.102-16.005-5.44-3.844-.227-7.683-1.432-11.134-3.697-10.935-7.174-13.682-22.141-5.722-32.773 1.145-1.53 2.478-2.871 3.919-4.028-9.092-2.972-19.471.081-25.37 7.961-7.959 10.632-5.212 25.599 5.722 32.773 5.502 3.61 11.987 4.527 17.913 3.084l15.119 9.919c5.378 3.528 7.811 10.214 5.829 16.332-3.159 9.75-4.868 20.153-4.868 30.956 0 20.476 6.133 39.518 16.661 55.394 3.611 5.446 3.107 12.637-1.241 17.516l-6.929 7.776c-6.421.32-12.699 3.404-16.885 9.16-6.155 8.463-5.455 20.33 1.654 28.01 8.265 8.929 21.706 9.419 30.549 2.026-3.66-1.263-7.079-3.519-9.832-6.792z" fill="#eb5569"/></g><g fill="#e53950"><circle cx="324.795" cy="121.408" r="14.943"/><circle cx="187.666" cy="130.16" r="14.943"/><circle cx="252.102" cy="386.091" r="13.325"/><circle cx="385.049" cy="287.361" r="12.662"/><circle cx="123.195" cy="277.649" r="12.626"/></g><circle cx="204.625" cy="233.936" fill="#eb5569" r="17.105"/><circle cx="266.694" cy="206.068" fill="#eb5569" r="13.76"/><circle cx="257.455" cy="300.023" fill="#eb5569" r="23.644"/></g><g><path d="m467.164 152.093c4.143 0 7.5-3.358 7.5-7.5v-61.094c0-7.884-5.336-14.72-12.978-16.625-26.047-6.49-46.879-27.567-53.072-53.697-1.841-7.758-8.697-13.177-16.674-13.177h-271.357c-7.978 0-14.833 5.416-16.672 13.17-6.271 26.461-27.42 47.611-53.881 53.882-7.755 1.837-13.171 8.693-13.171 16.671v173.434c0 58.298 20.117 115.426 56.646 160.861s88.002 77.354 144.939 89.876l15.707 3.454c.53.117 1.07.175 1.61.175s1.08-.058 1.61-.175l15.708-3.454c56.937-12.522 108.41-44.441 144.938-89.876s56.646-102.563 56.646-160.861v-80.602c0-4.142-3.357-7.5-7.5-7.5s-7.5 3.358-7.5 7.5v80.602c0 54.892-18.941 108.682-53.336 151.462-34.394 42.78-82.86 72.834-136.47 84.625l-14.097 3.1-14.096-3.1c-53.61-11.791-102.077-41.845-136.471-84.625-34.395-42.78-53.336-96.571-53.336-151.462v-173.434c0-.995.67-1.848 1.63-2.076 31.931-7.567 57.451-33.088 65.018-65.018.228-.959 1.081-1.63 2.076-1.63h271.359c.995 0 1.85.674 2.078 1.638 7.589 32.012 32.128 56.839 64.041 64.791.944.235 1.604 1.087 1.604 2.07v61.094c.001 4.143 3.358 7.501 7.501 7.501z"/><path d="m78.359 169.056c-4.143 0-7.5 3.358-7.5 7.5v80.602c0 50.577 17.453 100.14 49.145 139.558 31.689 39.417 76.346 67.109 125.743 77.973l8.404 1.848c.53.117 1.07.175 1.61.175s1.08-.058 1.611-.175l8.403-1.849c49.396-10.864 94.054-38.555 125.744-77.973 7.785-9.686 14.815-20.133 20.895-31.052 2.015-3.619.715-8.186-2.904-10.201-3.619-2.016-8.187-.715-10.201 2.905-5.669 10.182-12.223 19.922-19.48 28.95-29.556 36.763-71.205 62.589-117.275 72.721l-6.792 1.494-6.793-1.494c-46.07-10.133-87.719-35.959-117.275-72.722-29.557-36.764-45.834-82.988-45.834-130.159v-80.602c-.001-4.141-3.358-7.499-7.501-7.499z"/><path d="m416.713 339.916c.869.327 1.761.481 2.638.481 3.034 0 5.891-1.855 7.021-4.863 9.483-25.234 14.292-51.604 14.292-78.377v-156.355c0-2.969-1.751-5.658-4.466-6.859-12.254-5.421-23.263-13.019-32.72-22.582-9.416-9.524-16.868-20.569-22.149-32.829-1.185-2.75-3.893-4.533-6.888-4.533h-236.36c-2.995 0-5.703 1.782-6.888 4.533-5.357 12.437-12.949 23.618-22.566 33.235-9.615 9.616-20.798 17.208-33.234 22.566-2.751 1.185-4.533 3.893-4.533 6.888v43.371c0 4.142 3.357 7.5 7.5 7.5s7.5-3.358 7.5-7.5v-38.545c12.382-5.941 23.591-13.889 33.375-23.673 9.784-9.785 17.732-20.994 23.672-33.375h226.71c5.845 12.183 13.633 23.234 23.196 32.908 9.622 9.731 20.655 17.678 32.852 23.67v151.58c0 24.964-4.486 49.559-13.333 73.1-1.458 3.877.504 8.202 4.381 9.659z"/><path d="m123.194 257.523c-11.097 0-20.125 9.028-20.125 20.126s9.028 20.126 20.125 20.126c10.326 0 18.85-7.819 19.987-17.846l9.38-1.269c3.01 10.515 7.61 20.554 13.735 29.791 1.729 2.606 1.486 6.053-.589 8.382l-5.012 5.624c-7.703 1.249-14.6 5.47-19.269 11.891-8.173 11.238-7.36 26.885 1.932 37.203 5.66 6.285 13.717 9.885 22.116 9.885h.078c8.434-.022 16.485-3.644 22.093-9.938 4.586-5.147 7.186-11.569 7.487-18.362l5.228-5.867c2.049-2.301 5.441-2.941 8.242-1.559 11.402 5.624 23.469 9.119 35.999 10.454v10.519c-7.783 3.019-13.324 10.568-13.324 19.405 0 11.483 9.342 20.825 20.824 20.825 11.483 0 20.825-9.342 20.825-20.825 0-8.837-5.542-16.386-13.325-19.405v-9.95c8.413-.258 16.748-1.485 24.822-3.665 2.846-.767 5.941.515 7.521 3.124l5.242 8.666c-1.412 7.903.32 16.032 4.941 22.758 5.886 8.565 15.461 13.277 25.27 13.277 4.799 0 9.652-1.128 14.157-3.484 7.602-3.977 13.056-10.702 15.356-18.938 2.268-8.12 1.066-16.913-3.295-24.124-3.858-6.379-9.922-11.117-16.965-13.356l-4.721-7.804c-1.632-2.699-1.214-6.159 1.017-8.413 10.81-10.925 19.005-23.761 24.278-37.736l7.761 2.253c.976 10.214 9.598 18.229 20.063 18.229 11.117 0 20.162-9.044 20.162-20.162 0-11.117-9.045-20.162-20.162-20.162-6.415 0-12.127 3.022-15.822 7.706l-7.703-2.236c1.727-7.712 2.615-15.668 2.615-23.757 0-12.579-2.149-24.906-6.39-36.641-1.052-2.912.002-6.184 2.563-7.957l8.967-6.209c8.698 1.7 17.643-.146 25.037-5.266 7.7-5.332 12.786-13.722 13.952-23.021 1.166-9.292-1.714-18.703-7.9-25.819-9.845-11.324-26.645-14.521-39.942-7.604-9.385 4.881-15.695 13.602-17.403 23.793l-9.073 6.283c-2.616 1.812-6.084 1.699-8.436-.271-3.598-3.016-7.406-5.79-11.375-8.313l8.127-14.185c.831.094 1.675.146 2.53.146 12.375 0 22.443-10.068 22.443-22.443s-10.068-22.443-22.443-22.443-22.443 10.068-22.443 22.443c0 6.1 2.45 11.636 6.413 15.686l-7.812 13.635c-5.49-2.507-11.177-4.556-16.978-6.094-3.028-.803-5.144-3.539-5.144-6.652v-10.906c7.406-7.205 10.983-17.357 9.653-27.854-1.884-14.873-14.076-26.862-28.99-28.508-9.376-1.035-18.748 1.955-25.724 8.203-6.98 6.252-10.984 15.21-10.984 24.576 0 8.995 3.575 17.399 9.925 23.582v11.176c0 3.088-2.06 5.808-5.008 6.616-5.957 1.631-11.777 3.793-17.377 6.437l-4.59-7.85c.495-.674.966-1.373 1.392-2.115 6.163-10.73 2.447-24.476-8.283-30.64-5.197-2.985-11.245-3.768-17.035-2.205-5.787 1.564-10.618 5.289-13.604 10.486-2.986 5.198-3.77 11.249-2.206 17.036s5.289 10.619 10.487 13.605c3.515 2.019 7.352 2.978 11.141 2.978 1.914 0 3.814-.248 5.655-.724l3.953 6.76c-4.552 2.977-8.888 6.291-12.941 9.923-2.332 2.088-5.776 2.354-8.379.646l-12.42-8.149c-2.194-7.538-7.22-13.937-14.149-17.876-13.222-7.514-30.064-4-39.179 8.174-5.082 6.788-7.075 15.11-5.614 23.434 1.441 8.207 6.262 15.535 13.227 20.104 6.027 3.954 13.307 5.607 20.41 4.723l12.621 8.281c2.582 1.694 3.737 4.881 2.808 7.75-3.472 10.715-5.232 21.909-5.232 33.268 0 5.061.361 10.081 1.053 15.034l-10.352 1.4c-3.686-4.744-9.432-7.819-15.895-7.819zm261.855 24.677c2.847 0 5.162 2.315 5.162 5.162s-2.315 5.162-5.162 5.162c-2.846 0-5.161-2.316-5.161-5.162s2.315-5.162 5.161-5.162zm-60.254-168.236c4.104 0 7.443 3.339 7.443 7.443s-3.339 7.443-7.443 7.443-7.443-3.339-7.443-7.443 3.338-7.443 7.443-7.443zm-140.837 22.65c-1.724-.99-2.959-2.593-3.478-4.512s-.259-3.926.732-5.65c.989-1.724 2.592-2.958 4.511-3.478.646-.174 1.303-.261 1.954-.261 1.284 0 2.553.335 3.696.992 3.559 2.044 4.791 6.603 2.747 10.161-2.043 3.559-6.599 4.793-10.162 2.748zm68.144 255.302c-3.212 0-5.824-2.613-5.824-5.825s2.612-5.825 5.824-5.825 5.825 2.613 5.825 5.825-2.614 5.825-5.825 5.825zm-108.181-206.482c-1.738-1.14-3.868-1.508-5.89-1.016-4.168 1.016-8.438.283-12.022-2.068-3.569-2.342-5.942-5.949-6.681-10.156-.738-4.203.273-8.412 2.848-11.851 4.52-6.039 13.197-7.852 19.759-4.123 4.019 2.284 6.771 6.198 7.553 10.737.354 2.048 1.54 3.858 3.277 4.998l14.923 9.791c8.28 5.434 19.228 4.606 26.617-2.017 3.303-2.96 6.821-5.677 10.51-8.133l4.604 7.875c1.396 2.386 3.904 3.715 6.481 3.715 1.286 0 2.589-.331 3.779-1.026 3.575-2.091 4.779-6.685 2.688-10.26l-4.434-7.583c4.444-2.021 9.037-3.698 13.731-4.983 9.447-2.587 16.045-11.257 16.045-21.083v-14.582c0-2.323-1.077-4.516-2.915-5.936-4.455-3.44-7.01-8.631-7.01-14.241 0-5.107 2.184-9.992 5.992-13.403 3.858-3.456 8.85-5.042 14.07-4.467 8.105.895 14.731 7.407 15.755 15.484.818 6.462-1.744 12.677-6.856 16.625-1.839 1.42-2.916 3.613-2.916 5.936v14.313c0 9.909 6.702 18.606 16.299 21.151 4.542 1.204 9.001 2.778 13.328 4.676l-5.152 8.993c-2.059 3.594-.814 8.177 2.779 10.236 1.176.673 2.457.994 3.722.994 2.601 0 5.129-1.355 6.515-3.773l5.351-9.339c3.205 2.071 6.286 4.331 9.206 6.778 7.516 6.297 18.457 6.751 26.609 1.106l11.874-8.222c1.91-1.322 3.1-3.456 3.221-5.775.336-6.452 3.986-12.097 9.765-15.103 7.224-3.759 16.35-2.017 21.7 4.138 3.441 3.959 4.982 8.971 4.338 14.111-.637 5.072-3.41 9.648-7.609 12.556-4.61 3.192-10.332 4.048-15.697 2.344-2.211-.702-4.63-.34-6.539.982l-11.767 8.148c-8.148 5.642-11.492 16.081-8.131 25.386 3.647 10.095 5.497 20.708 5.497 31.543 0 6.653-.72 13.196-2.079 19.557l-18.394-5.34c-3.973-1.153-8.139 1.132-9.293 5.112-1.155 3.978 1.133 8.139 5.111 9.293l18.258 5.301c-4.55 11.603-11.437 22.274-20.457 31.39-7.072 7.148-8.384 18.138-3.188 26.727l6.299 10.413c1.095 1.81 2.903 3.074 4.979 3.479 4.332.846 8.124 3.494 10.406 7.267 2.261 3.738 2.858 8.115 1.683 12.325-1.175 4.206-3.967 7.645-7.862 9.682-6.878 3.598-15.712 1.405-20.11-4.996-2.709-3.942-3.481-8.822-2.119-13.388.604-2.027.325-4.215-.771-6.025l-6.823-11.28c-4.025-6.655-11.241-10.576-18.723-10.576-1.846 0-3.708.239-5.542.734-7.867 2.124-16.026 3.201-24.251 3.201-14.402 0-28.204-3.207-41.023-9.53-8.834-4.359-19.556-2.288-26.078 5.032l-7.147 8.022c-1.337 1.5-2.016 3.474-1.885 5.479.26 3.962-1.049 7.773-3.683 10.729-2.774 3.113-6.759 4.905-10.934 4.917-.014 0-.026 0-.04 0-4.214 0-8.108-1.748-10.968-4.923-4.58-5.085-4.979-12.8-.946-18.343 2.647-3.642 6.728-5.858 11.193-6.081 2.007-.1 3.889-1.001 5.226-2.501l6.929-7.776c6.604-7.411 7.382-18.37 1.892-26.651-10.082-15.204-15.411-32.926-15.411-51.249 0-9.787 1.515-19.425 4.502-28.645 3.006-9.278-.633-19.523-8.849-24.915zm-20.727 97.341c-2.826 0-5.125-2.299-5.125-5.126s2.299-5.126 5.125-5.126 5.126 2.299 5.126 5.126-2.299 5.126-5.126 5.126z"/><path d="m204.625 258.541c13.567 0 24.604-11.038 24.604-24.604 0-13.567-11.037-24.605-24.604-24.605s-24.604 11.038-24.604 24.605c0 13.566 11.037 24.604 24.604 24.604zm0-34.21c5.296 0 9.604 4.309 9.604 9.605s-4.309 9.604-9.604 9.604-9.604-4.309-9.604-9.604c0-5.296 4.308-9.605 9.604-9.605z"/><path d="m266.694 227.328c11.723 0 21.26-9.537 21.26-21.26s-9.537-21.26-21.26-21.26-21.26 9.537-21.26 21.26c.001 11.723 9.538 21.26 21.26 21.26zm0-27.52c3.451 0 6.26 2.808 6.26 6.26s-2.809 6.26-6.26 6.26-6.26-2.808-6.26-6.26c.001-3.452 2.809-6.26 6.26-6.26z"/><path d="m257.455 331.167c17.173 0 31.145-13.971 31.145-31.144s-13.972-31.145-31.145-31.145-31.145 13.971-31.145 31.145c.001 17.173 13.972 31.144 31.145 31.144zm0-47.288c8.902 0 16.145 7.242 16.145 16.145 0 8.902-7.242 16.144-16.145 16.144s-16.145-7.242-16.145-16.144c.001-8.903 7.243-16.145 16.145-16.145z"/></g></g></svg>