<svg height="512pt" viewBox="-53 0 512 512.001" width="512pt" xmlns="http://www.w3.org/2000/svg"><path d="m68.632812 33.773438h-36.984374c-12.25 0-22.183594 9.933593-22.183594 22.1875v423.851562c0 12.253906 9.933594 22.1875 22.183594 22.1875h341.972656c12.253906 0 22.183594-9.933594 22.183594-22.1875v-423.851562c0-12.253907-9.929688-22.1875-22.183594-22.1875zm0 0" fill="#a25753"/><path d="m373.621094 33.773438h-67c12.25 0 22.183594 9.933593 22.183594 22.1875v423.851562c0 12.253906-9.933594 22.1875-22.183594 22.1875h67c12.25 0 22.183594-9.933594 22.183594-22.1875v-423.851562c0-12.253907-9.933594-22.1875-22.183594-22.1875zm0 0" fill="#753f3c"/><path d="m68.632812 33.773438h-12.007812v424.816406h292.019531v-424.816406zm0 0" fill="#eeedee"/><path d="m336.632812 33.773438h-29.648437v267.015624c0 64.140626-51.996094 116.136719-116.140625 116.136719h-134.21875v41.664063h292.019531v-424.816406zm0 0" fill="#cccbcc"/><path d="m286.875 10h-168.480469c-8.847656 0-16.019531 7.171875-16.019531 16.019531v32.042969c0 8.847656 7.171875 16.023438 16.019531 16.023438h41.859375c0 18.835937 15.273438 34.105468 34.109375 34.105468h16.539063c18.839844 0 34.109375-15.269531 34.109375-34.105468h41.859375c8.847656 0 16.023437-7.175782 16.023437-16.023438v-32.042969c0-8.847656-7.171875-16.019531-16.019531-16.019531zm0 0" fill="#636363"/><path d="m286.875 10h-59.636719c2.851563 8.820312 4.394531 18.230469 4.394531 28 0 28.253906-12.875 53.503906-33.082031 70.191406h12.351563c18.839844 0 34.109375-15.269531 34.109375-34.105468h41.863281c8.847656 0 16.019531-7.175782 16.019531-16.023438v-32.042969c0-8.847656-7.171875-16.019531-16.019531-16.019531zm0 0" fill="#424242"/><path d="m375.359375 24.015625h-37.363281c-4.140625 0-7.5 3.355469-7.5 7.5 0 4.140625 3.359375 7.5 7.5 7.5h4.632812v414.132813h-279.988281v-414.132813h31.214844v17.035156c0 13.0625 10.625 23.683594 23.683593 23.683594h35.457032c3.546875 19.570313 20.710937 34.457031 41.285156 34.457031h16.707031c20.570313 0 37.734375-14.886718 41.28125-34.457031h35.457031c13.0625 0 23.6875-10.625 23.6875-23.683594v-32.367187c0-13.058594-10.625-23.683594-23.683593-23.683594h-170.191407c-13.058593 0-23.683593 10.625-23.683593 23.683594v.332031h-63.945313c-16.492187 0-29.910156 13.417969-29.910156 29.910156v301.070313c0 4.144531 3.359375 7.5 7.5 7.5s7.5-3.355469 7.5-7.5v-301.070313c0-8.222656 6.691406-14.910156 14.910156-14.910156h17.730469v421.628906c0 4.144531 3.359375 7.5 7.5 7.5h294.988281c4.144532 0 7.5-3.355469 7.5-7.5v-421.628906h17.730469c8.222656 0 14.910156 6.6875 14.910156 14.910156v428.164063c0 8.222656-6.6875 14.910156-14.910156 14.910156h-345.449219c-8.21875 0-14.910156-6.6875-14.910156-14.910156v-91.738282c0-4.140624-3.359375-7.5-7.5-7.5s-7.5 3.359376-7.5 7.5v91.738282c0 16.492187 13.417969 29.910156 29.910156 29.910156h345.449219c16.492187 0 29.910156-13.417969 29.910156-29.910156v-428.164063c0-16.492187-13.417969-29.910156-29.910156-29.910156zm-266.503906-.332031c0-4.789063 3.894531-8.683594 8.683593-8.683594h170.191407c4.789062 0 8.683593 3.894531 8.683593 8.683594v32.367187c0 4.789063-3.894531 8.683594-8.683593 8.683594h-42.285157c-4.144531 0-7.5 3.359375-7.5 7.5 0 14.867187-12.09375 26.957031-26.957031 26.957031h-16.707031c-14.863281 0-26.957031-12.089844-26.957031-26.957031 0-4.140625-3.355469-7.5-7.5-7.5h-42.285157c-4.789062 0-8.683593-3.894531-8.683593-8.683594zm0 0"/><path d="m298.171875 205.214844h-39.65625l-25.347656-69.210938c-2.519531-6.882812-12.496094-6.414062-14.308594.734375l-27.226563 107.191407-26.28125-76.460938c-2.101562-6.113281-10.46875-6.871094-13.632812-1.230469l-21.867188 38.980469h-22.753906c-4.144531 0-7.5 3.355469-7.5 7.5 0 4.140625 3.355469 7.5 7.5 7.5h27.144532c2.714843 0 5.214843-1.464844 6.542968-3.832031l15.824219-28.207031 29.011719 84.398437c2.414062 7.027344 12.535156 6.613281 14.363281-.589844l27.441406-108.046875 18.804688 51.355469c1.082031 2.953125 3.894531 4.917969 7.042969 4.917969h44.894531c4.144531 0 7.5-3.355469 7.5-7.5 0-4.140625-3.355469-7.5-7.496094-7.5zm0 0"/><path d="m298.171875 328.898438h-191.074219c-4.140625 0-7.5 3.355468-7.5 7.5 0 4.140624 3.359375 7.5 7.5 7.5h191.074219c4.140625 0 7.5-3.359376 7.5-7.5 0-4.144532-3.359375-7.5-7.5-7.5zm0 0"/><path d="m298.171875 394.972656h-191.074219c-4.140625 0-7.5 3.359375-7.5 7.5 0 4.144532 3.359375 7.5 7.5 7.5h191.074219c4.140625 0 7.5-3.355468 7.5-7.5 0-4.140625-3.359375-7.5-7.5-7.5zm0 0"/></svg>